<?xml version="1.0" standalone="no"?>
<!DOCTYPE svg PUBLIC "-//W3C//DTD SVG 20010904//EN"
 "http://www.w3.org/TR/2001/REC-SVG-20010904/DTD/svg10.dtd">
<svg version="1.0" xmlns="http://www.w3.org/2000/svg"
 width="1024.000000pt" height="1024.000000pt" viewBox="0 0 1024.000000 1024.000000"
 preserveAspectRatio="xMidYMid meet">

<g transform="translate(0.000000,1024.000000) scale(0.100000,-0.100000)"
fill="#000000" stroke="none">
<path d="M8850 8234 c-220 -59 -375 -241 -388 -454 -10 -184 72 -344 236 -452
97 -65 157 -83 277 -83 121 1 175 17 278 84 116 76 181 163 217 292 25 93 25
155 0 248 -30 108 -62 162 -134 228 -142 130 -322 181 -486 137z"/>
<path d="M2890 7539 c-106 -13 -202 -44 -252 -82 -70 -54 -133 -140 -153 -209
-26 -93 -31 -230 -11 -307 21 -81 7 -56 473 -871 45 -80 101 -181 124 -225 23
-44 47 -87 54 -95 7 -8 28 -44 47 -80 32 -59 57 -104 168 -300 20 -36 70 -121
110 -190 40 -69 89 -154 108 -190 20 -36 56 -99 82 -140 26 -41 50 -82 53 -90
4 -8 27 -49 51 -90 l44 -75 -51 -18 c-29 -11 -101 -39 -162 -62 -60 -24 -177
-68 -260 -99 -308 -112 -444 -172 -740 -322 -201 -102 -250 -130 -380 -216
-399 -266 -572 -518 -511 -743 50 -187 228 -373 496 -517 153 -82 180 -96 280
-140 118 -53 459 -168 583 -198 253 -60 299 -70 377 -84 148 -26 281 -46 400
-60 63 -8 207 -26 320 -41 113 -14 291 -35 395 -45 235 -24 646 -71 663 -76 6
-2 12 -15 12 -29 0 -26 74 -165 88 -165 4 0 32 49 62 108 l55 107 113 3 c131
3 154 22 27 22 -62 0 -85 3 -85 13 0 7 34 61 75 122 41 60 75 113 75 117 0 4
-156 8 -346 8 l-346 0 49 -62 c55 -71 143 -196 143 -204 0 -3 -3 -3 -7 -1 -5
3 -42 8 -82 11 -41 4 -78 9 -83 12 -4 3 -164 25 -355 49 -192 24 -411 54 -488
65 -77 12 -171 25 -210 31 -269 36 -648 110 -805 158 -223 67 -272 83 -330
106 -36 15 -78 32 -95 40 -16 7 -55 23 -85 35 -30 12 -102 46 -160 77 -58 31
-125 66 -150 79 -158 79 -368 280 -411 392 -41 109 -36 229 16 347 76 172 377
421 755 624 74 40 160 87 191 105 99 58 276 146 294 146 2 0 28 10 57 23 58
26 105 45 188 76 51 20 296 118 402 161 l46 19 29 -55 c15 -30 76 -141 136
-245 59 -105 107 -193 107 -197 0 -19 -450 -462 -495 -488 -45 -26 -59 -29
-140 -28 -65 0 -99 5 -122 17 -48 26 -246 197 -351 305 -106 109 -176 162
-212 162 -53 0 -170 -71 -248 -152 -42 -43 -81 -86 -86 -96 -5 -9 -21 -33 -36
-52 -15 -19 -54 -86 -86 -149 -49 -96 -59 -125 -62 -178 -6 -90 13 -168 78
-319 88 -205 193 -339 376 -482 23 -17 45 -32 48 -32 4 0 19 -9 34 -20 26 -19
214 -94 277 -111 17 -4 57 -15 90 -23 33 -9 133 -21 222 -28 240 -18 420 4
639 78 204 69 430 196 618 348 132 106 359 329 471 462 50 59 95 112 100 118
37 39 203 257 344 450 99 136 611 907 611 920 0 2 25 40 55 85 30 45 55 84 55
87 0 2 22 37 48 77 46 68 68 103 136 214 34 55 84 135 178 283 82 129 108 171
108 176 0 3 21 37 47 77 51 77 53 79 97 153 17 27 54 86 83 132 29 45 53 86
53 90 0 4 22 39 48 78 64 98 145 229 187 304 31 54 54 92 115 190 113 181 145
282 138 435 -9 180 -63 275 -191 338 -97 48 -180 61 -342 54 -185 -9 -317 -50
-402 -127 -18 -16 -33 -32 -33 -35 0 -3 -51 -87 -113 -188 -63 -100 -122 -198
-132 -217 -10 -19 -21 -37 -25 -40 -9 -7 -80 -126 -80 -134 0 -4 -16 -33 -37
-64 -20 -31 -57 -93 -83 -137 -48 -84 -241 -410 -326 -553 -27 -46 -83 -141
-124 -211 -41 -71 -137 -234 -213 -362 -76 -129 -171 -292 -211 -364 l-73
-130 -117 -3 c-116 -3 -116 -3 -141 25 -38 42 -147 208 -192 293 -22 41 -67
120 -99 175 -32 55 -79 138 -105 185 -26 47 -69 124 -95 171 -27 47 -93 164
-147 260 -54 96 -102 181 -107 189 -11 18 -169 300 -337 600 -66 118 -155 276
-197 351 -73 131 -102 167 -187 232 -77 58 -330 97 -499 76z"/>
<path d="M8180 7131 c-69 -10 -154 -55 -216 -113 -101 -96 -133 -184 -114
-318 14 -98 42 -151 118 -221 89 -81 158 -104 307 -103 101 1 116 3 178 32 99
45 183 141 212 239 38 128 1 269 -96 364 -105 103 -232 143 -389 120z"/>
<path d="M7640 6259 c-139 -13 -256 -93 -320 -219 -44 -86 -50 -225 -13 -305
78 -169 209 -254 389 -256 82 -1 110 5 191 42 75 34 152 107 189 181 39 75 46
217 15 300 -26 68 -88 148 -145 186 -94 64 -178 83 -306 71z"/>
<path d="M7085 5235 c-53 -20 -134 -82 -163 -125 -55 -82 -66 -214 -24 -297
12 -22 51 -68 87 -101 62 -56 71 -61 137 -72 156 -27 296 46 361 189 30 64 29
169 -1 231 -29 59 -102 133 -161 162 -58 28 -176 35 -236 13z"/>
<path d="M6250 4106 c0 -8 18 -59 41 -113 22 -54 60 -147 84 -208 24 -60 58
-143 74 -183 17 -40 36 -99 43 -132 6 -33 15 -60 18 -60 3 0 21 30 39 67 18
38 46 84 62 104 16 20 55 74 86 120 31 46 70 104 87 127 17 24 36 51 41 60 16
27 91 133 131 185 l36 47 -371 0 c-313 0 -371 -2 -371 -14z"/>
<path d="M5623 3173 c-22 -8 -15 -34 51 -194 35 -84 94 -233 131 -329 38 -96
74 -184 82 -195 11 -17 13 -13 13 40 0 56 4 65 53 133 51 73 74 107 171 253
27 41 52 76 56 79 9 6 81 119 109 171 l20 37 -22 6 c-27 6 -647 6 -664 -1z"/>
<path d="M5480 1971 c0 -9 230 -35 238 -26 3 3 -1 5 -9 5 -8 0 -59 7 -114 15
-120 17 -115 17 -115 6z"/>
<path d="M10080 80 l0 -80 80 0 80 0 0 80 0 80 -80 0 -80 0 0 -80z"/>
</g>
</svg>
